<svg width="14" height="22" viewBox="0 0 14 22" fill="none" xmlns="http://www.w3.org/2000/svg">
<path fill-rule="evenodd" clip-rule="evenodd" d="M7 9.18615C8.03757 9.18527 9.56384 7.73877 10.5 8.18615C11.4362 8.63353 11.6974 8.9634 12.3485 9.77126C12.9996 10.5791 13.4612 11.5227 13.6995 12.5325C13.9377 13.5424 13.9465 14.5928 13.7252 15.6065C13.5039 16.6202 13.0581 17.5713 12.4206 18.39C11.7831 19.2086 10.9702 19.8739 10.0417 20.3369C9.11313 20.7999 8.09259 21.0488 7.05515 21.0653C6.01771 21.0818 4.98978 20.8654 4.04699 20.4322L0.588994 21.0582C0.502001 21.0739 0.412391 21.0663 0.329298 21.0361C0.246204 21.0059 0.172599 20.9542 0.115984 20.8863C0.0593684 20.8184 0.0217672 20.7368 0.00701285 20.6496C-0.00774154 20.5624 0.000878362 20.4729 0.031994 20.3902L1.02299 17.7502C0.379032 16.6985 0.0269359 15.4942 0.00294114 14.2612C-0.0210537 13.0282 0.283919 11.8111 0.886475 10.7352C1.48903 9.65922 2.3674 8.76324 3.4312 8.13946C4.495 7.51568 5.76681 9.18662 7 9.18615ZM4.69099 12.4392C4.88991 12.4392 5.08067 12.3601 5.22132 12.2195C5.36198 12.0788 5.44099 11.8881 5.44099 11.6892C5.44099 11.4902 5.36198 11.2995 5.22132 11.1588C5.08067 11.0182 4.88991 10.9392 4.69099 10.9392C4.49208 10.9392 4.30132 11.0182 4.16066 11.1588C4.02001 11.2995 3.94099 11.4902 3.94099 11.6892C3.94099 11.8881 4.02001 12.0788 4.16066 12.2195C4.30132 12.3601 4.49208 12.4392 4.69099 12.4392ZM9.90999 11.6892C9.90999 11.8881 9.83098 12.0788 9.69032 12.2195C9.54967 12.3601 9.35891 12.4392 9.15999 12.4392C8.96108 12.4392 8.77032 12.3601 8.62966 12.2195C8.48901 12.0788 8.40999 11.8881 8.40999 11.6892C8.40999 11.4902 8.48901 11.2995 8.62966 11.1588C8.77032 11.0182 8.96108 10.9392 9.15999 10.9392C9.35891 10.9392 9.54967 11.0182 9.69032 11.1588C9.83098 11.2995 9.90999 11.4902 9.90999 11.6892ZM10.441 14.6262C10.441 15.5544 10.0722 16.4447 9.41587 17.101C8.75949 17.7574 7.86925 18.1262 6.94099 18.1262C6.01274 18.1262 5.1225 17.7574 4.46612 17.101C3.80974 16.4447 3.44099 15.5544 3.44099 14.6262H10.441Z" fill="white"/>
<path d="M13.9992 5.68495C13.9982 4.757 13.6291 3.86734 12.9729 3.21118C12.3168 2.55501 11.4271 2.18595 10.4992 2.18495C10.3885 2.18495 10.2779 2.1912 10.1685 2.2012C9.88632 1.59888 9.43833 1.08944 8.87701 0.732566C8.3157 0.375689 7.66431 0.18615 6.99916 0.18615C6.334 0.18615 5.68261 0.375689 5.1213 0.732566C4.55999 1.08944 4.11199 1.59888 3.82978 2.2012C3.72041 2.1912 3.60978 2.18495 3.49916 2.18495C2.70464 2.18515 1.93384 2.45565 1.31345 2.95201C0.693063 3.44837 0.260012 4.14103 0.0854879 4.91614C-0.0890366 5.69124 0.0053508 6.50266 0.353134 7.21702C0.700917 7.93137 1.2814 8.50613 1.99916 8.84683V11.685C1.99916 11.9502 2.10451 12.2045 2.29205 12.3921C2.47958 12.5796 2.73394 12.685 2.99916 12.685L7 13.6861L10.9992 12.685C11.2644 12.685 11.5187 12.5796 11.7063 12.3921C11.8938 12.2045 11.9992 11.9502 11.9992 11.685V8.84683C12.5971 8.56246 13.1023 8.11457 13.4562 7.555C13.8102 6.99543 13.9984 6.34707 13.9992 5.68495ZM8.51416 7.5637L9.01416 5.5637C9.04813 5.43706 9.1305 5.32883 9.24351 5.26233C9.35652 5.19584 9.49114 5.17639 9.61834 5.2082C9.74555 5.24 9.85518 5.3205 9.9236 5.43235C9.99203 5.54421 10.0138 5.67847 9.98415 5.8062L9.48415 7.8062C9.45712 7.91437 9.3947 8.0104 9.30682 8.07903C9.21895 8.14765 9.11065 8.18494 8.99916 8.18495C8.95807 8.18498 8.91713 8.17994 8.87728 8.16995C8.74878 8.13764 8.63835 8.05564 8.57027 7.94197C8.50218 7.8283 8.482 7.69225 8.51416 7.5637ZM6.49916 5.68495C6.49916 5.55235 6.55183 5.42517 6.6456 5.3314C6.73937 5.23763 6.86655 5.18495 6.99916 5.18495C7.13176 5.18495 7.25894 5.23763 7.35271 5.3314C7.44648 5.42517 7.49916 5.55235 7.49916 5.68495V7.68495C7.49916 7.81756 7.44648 7.94474 7.35271 8.03851C7.25894 8.13228 7.13176 8.18495 6.99916 8.18495C6.86655 8.18495 6.73937 8.13228 6.6456 8.03851C6.55183 7.94474 6.49916 7.81756 6.49916 7.68495V5.68495ZM4.37791 5.19995C4.50653 5.16782 4.64266 5.18808 4.75635 5.2563C4.87004 5.32451 4.95198 5.43509 4.98416 5.5637L5.48416 7.5637C5.51629 7.69233 5.49603 7.82846 5.42781 7.94215C5.3596 8.05584 5.24903 8.13778 5.12041 8.16995C5.07954 8.1802 5.03754 8.18524 4.99541 8.18495C4.88402 8.1848 4.77587 8.14745 4.68812 8.07884C4.60037 8.01022 4.53804 7.91427 4.51103 7.8062L4.01103 5.8062C3.99517 5.7423 3.99208 5.6759 4.00195 5.6108C4.01181 5.5457 4.03444 5.4832 4.06853 5.42687C4.10262 5.37054 4.1475 5.3215 4.20059 5.28256C4.25368 5.24362 4.31394 5.21554 4.37791 5.19995ZM10.9992 11.685L9.30682 12.5735L7 13.1861L4.68812 12.7727L2.99916 11.685V9.1487C3.16473 9.17283 3.33183 9.18495 3.49916 9.18495H10.4992C10.6665 9.18495 10.8336 9.17283 10.9992 9.1487V11.685Z" fill="white"/>
</svg>
