<svg width="24" height="24" viewBox="0 0 24 24" fill="none" xmlns="http://www.w3.org/2000/svg">
<circle cx="12" cy="12" r="12" fill="#4D9F33"/>
<g clip-path="url(#clip0_1_10)">
<path d="M11.9994 18C15.2482 18 17.8877 15.3326 18 12C17.8877 8.66743 15.2482 6 11.9994 6C8.75065 6 6.11082 8.66743 6 12C6.11045 15.3326 8.75065 18 11.9994 18Z" fill="#F4F4F4"/>
<path d="M12.2344 5.125C8.43751 5.125 5.35907 8.20313 5.35907 12C5.35907 15.7966 8.43782 18.875 12.2344 18.875C16.0309 18.875 19.1094 15.7966 19.1094 12C19.1094 8.20313 16.0309 5.125 12.2344 5.125ZM12.2341 17C9.47251 17 7.23376 14.8372 7.23376 12.1684C7.23376 12.1116 7.24157 12.0563 7.24344 12C7.24157 11.9437 7.23376 11.8881 7.23376 11.8316C7.23376 9.16281 9.47282 7 12.2341 7C14.9953 7 17.2341 9.16281 17.2341 11.8316C17.2341 11.8881 17.2275 11.9437 17.2259 12C17.2278 12.0563 17.2341 12.1116 17.2341 12.1684C17.2338 14.8372 14.9956 17 12.2341 17Z" fill="#F4F4F4"/>
<path d="M3.08781 4.31906C3.16281 4.025 3.31125 4.31562 3.31125 4.31562C3.31125 4.31562 3.36312 7.35937 3.70062 7.3925C4.03812 7.42562 3.77812 4.26062 4.1775 4.2C4.54875 4.14094 4.33687 7.44281 4.675 7.40937C5.01187 7.37375 5.06875 4.33125 5.06875 4.33125C5.06875 4.33125 5.21875 4.04094 5.29281 4.33281C6.20781 7.92969 5.4675 9.4 5.4675 9.4C5.4675 9.4 5.3425 9.70906 5.04562 9.71062C5.01781 9.70906 5.03875 18.2531 5.03687 19.4019C5.0375 19.9603 3.31812 19.9431 3.31906 19.3872C3.32031 18.2384 3.35375 9.69531 3.32687 9.69594C3.02906 9.69594 2.90437 9.38719 2.90437 9.38719C2.90437 9.38719 2.16687 7.91781 3.08781 4.31906ZM19.3812 4.1875C19.7681 4.18656 21.3731 5.34375 21.375 9.64437C21.3769 11.0197 20.6266 11.0194 20.6278 11.8797C20.6291 12.7384 20.6337 19.5691 20.6337 19.5691C20.6337 19.5691 19.8106 20.1337 19.1987 19.5428L19.1875 4.30969C19.1881 4.31 19.1859 4.18719 19.3812 4.1875Z" fill="#F4F4F4"/>
<path d="M6.49538 15V8.45455H11.0593V9.73935H8.07741V11.0817H10.826V12.3697H8.07741V13.7152H11.0593V15H6.49538ZM16.3455 10.5927C16.3093 10.4585 16.256 10.3402 16.1857 10.2379C16.1154 10.1335 16.0291 10.0451 15.9268 9.97266C15.8246 9.90021 15.7074 9.84588 15.5753 9.80966C15.4432 9.77131 15.2983 9.75213 15.1406 9.75213C14.8232 9.75213 14.5483 9.82883 14.3161 9.98224C14.0859 10.1357 13.908 10.3594 13.7823 10.6534C13.6566 10.9453 13.5938 11.3001 13.5938 11.7177C13.5938 12.1374 13.6545 12.4954 13.7759 12.7915C13.8974 13.0877 14.0732 13.3136 14.3033 13.4691C14.5334 13.6246 14.8125 13.7024 15.1406 13.7024C15.4304 13.7024 15.6754 13.6555 15.8757 13.5618C16.0781 13.4659 16.2315 13.3306 16.3359 13.1559C16.4403 12.9812 16.4925 12.7756 16.4925 12.5391L16.7866 12.5742H15.195V11.4205H18.017V12.2866C18.017 12.8725 17.8924 13.3743 17.6431 13.7919C17.396 14.2095 17.055 14.5302 16.6204 14.7539C16.1879 14.9776 15.6903 15.0895 15.1278 15.0895C14.5036 15.0895 13.9549 14.9542 13.4819 14.6836C13.0089 14.413 12.6403 14.0273 12.3761 13.5266C12.1119 13.0238 11.9798 12.4272 11.9798 11.7369C11.9798 11.1999 12.0597 10.7237 12.2195 10.3082C12.3793 9.89062 12.6019 9.53693 12.8874 9.24716C13.1751 8.95739 13.5075 8.73793 13.8846 8.58878C14.2638 8.43963 14.6719 8.36506 15.1087 8.36506C15.4879 8.36506 15.8406 8.41939 16.1665 8.52805C16.4947 8.63672 16.7844 8.79013 17.0359 8.98828C17.2894 9.18643 17.495 9.42188 17.6527 9.6946C17.8104 9.96733 17.9084 10.2667 17.9467 10.5927H16.3455Z" fill="#4D9F33"/>
</g>
<defs>
<clipPath id="clip0_1_10">
<rect width="20" height="20" fill="white" transform="translate(2 2)"/>
</clipPath>
</defs>
</svg>
